<svg width="174" height="24" viewBox="0 0 174 24" fill="none" xmlns="http://www.w3.org/2000/svg">
<path d="M32.368 20C32.096 20 31.88 19.92 31.72 19.76C31.56 19.6 31.464 19.416 31.432 19.208L28.816 3.872C28.8 3.84 28.792 3.808 28.792 3.776C28.792 3.744 28.792 3.72 28.792 3.704C28.792 3.576 28.84 3.464 28.936 3.368C29.048 3.256 29.168 3.2 29.296 3.2H32.272C32.72 3.2 32.968 3.376 33.016 3.728L34.576 13.112L36.304 7.568C36.352 7.44 36.432 7.304 36.544 7.16C36.656 7 36.84 6.92 37.096 6.92H38.824C39.096 6.92 39.288 7 39.4 7.16C39.512 7.304 39.584 7.44 39.616 7.568L41.344 13.088L42.904 3.728C42.952 3.376 43.2 3.2 43.648 3.2H46.624C46.768 3.2 46.888 3.256 46.984 3.368C47.08 3.464 47.128 3.576 47.128 3.704C47.128 3.72 47.128 3.744 47.128 3.776C47.128 3.808 47.128 3.84 47.128 3.872L44.512 19.208C44.48 19.416 44.384 19.6 44.224 19.76C44.064 19.92 43.848 20 43.576 20H41.296C41.024 20 40.816 19.928 40.672 19.784C40.528 19.64 40.432 19.504 40.384 19.376L37.96 12.512L35.536 19.376C35.488 19.504 35.392 19.64 35.248 19.784C35.12 19.928 34.92 20 34.648 20H32.368ZM54.7966 20.24C53.4526 20.24 52.3166 20.024 51.3886 19.592C50.4766 19.16 49.7726 18.544 49.2766 17.744C48.7966 16.928 48.5246 15.96 48.4606 14.84C48.4446 14.52 48.4366 14.16 48.4366 13.76C48.4366 13.344 48.4446 12.984 48.4606 12.68C48.5246 11.544 48.8126 10.576 49.3246 9.776C49.8366 8.976 50.5486 8.36 51.4606 7.928C52.3886 7.496 53.5006 7.28 54.7966 7.28C56.1086 7.28 57.2206 7.496 58.1326 7.928C59.0606 8.36 59.7806 8.976 60.2926 9.776C60.8046 10.576 61.0926 11.544 61.1566 12.68C61.1726 12.984 61.1806 13.344 61.1806 13.76C61.1806 14.16 61.1726 14.52 61.1566 14.84C61.0926 15.96 60.8126 16.928 60.3166 17.744C59.8366 18.544 59.1326 19.16 58.2046 19.592C57.2926 20.024 56.1566 20.24 54.7966 20.24ZM54.7966 17.312C55.5166 17.312 56.0366 17.096 56.3566 16.664C56.6926 16.232 56.8846 15.584 56.9326 14.72C56.9486 14.48 56.9566 14.16 56.9566 13.76C56.9566 13.36 56.9486 13.04 56.9326 12.8C56.8846 11.952 56.6926 11.312 56.3566 10.88C56.0366 10.432 55.5166 10.208 54.7966 10.208C54.0926 10.208 53.5726 10.432 53.2366 10.88C52.9006 11.312 52.7166 11.952 52.6846 12.8C52.6686 13.04 52.6606 13.36 52.6606 13.76C52.6606 14.16 52.6686 14.48 52.6846 14.72C52.7166 15.584 52.9006 16.232 53.2366 16.664C53.5726 17.096 54.0926 17.312 54.7966 17.312ZM64.141 20C63.965 20 63.821 19.944 63.709 19.832C63.597 19.72 63.541 19.576 63.541 19.4V8.12C63.541 7.96 63.597 7.824 63.709 7.712C63.821 7.584 63.965 7.52 64.141 7.52H66.901C67.077 7.52 67.221 7.584 67.333 7.712C67.445 7.824 67.501 7.96 67.501 8.12V9.08C67.933 8.584 68.445 8.2 69.037 7.928C69.645 7.656 70.325 7.52 71.077 7.52H72.133C72.293 7.52 72.429 7.576 72.541 7.688C72.669 7.8 72.733 7.944 72.733 8.12V10.592C72.733 10.752 72.669 10.896 72.541 11.024C72.429 11.136 72.293 11.192 72.133 11.192H69.805C69.149 11.192 68.637 11.376 68.269 11.744C67.917 12.096 67.741 12.6 67.741 13.256V19.4C67.741 19.576 67.677 19.72 67.549 19.832C67.437 19.944 67.293 20 67.117 20H64.141ZM75.0394 20C74.8634 20 74.7194 19.944 74.6074 19.832C74.4954 19.72 74.4394 19.576 74.4394 19.4V3.56C74.4394 3.384 74.4954 3.24 74.6074 3.128C74.7194 3.016 74.8634 2.96 75.0394 2.96H77.8714C78.0474 2.96 78.1914 3.016 78.3034 3.128C78.4154 3.24 78.4714 3.384 78.4714 3.56V19.4C78.4714 19.576 78.4154 19.72 78.3034 19.832C78.1914 19.944 78.0474 20 77.8714 20H75.0394ZM85.9626 20.24C85.1946 20.24 84.4986 20.12 83.8746 19.88C83.2666 19.624 82.7386 19.256 82.2906 18.776C81.8586 18.28 81.5226 17.688 81.2826 17C81.0426 16.296 80.9066 15.496 80.8746 14.6C80.8586 14.28 80.8506 14 80.8506 13.76C80.8506 13.504 80.8586 13.224 80.8746 12.92C80.9066 12.056 81.0426 11.28 81.2826 10.592C81.5226 9.904 81.8586 9.312 82.2906 8.816C82.7226 8.32 83.2506 7.944 83.8746 7.688C84.4986 7.416 85.1946 7.28 85.9626 7.28C86.7626 7.28 87.4506 7.416 88.0266 7.688C88.6026 7.944 89.0906 8.28 89.4906 8.696V3.56C89.4906 3.384 89.5466 3.24 89.6586 3.128C89.7706 3.016 89.9146 2.96 90.0906 2.96H93.0186C93.1786 2.96 93.3146 3.016 93.4266 3.128C93.5546 3.24 93.6186 3.384 93.6186 3.56V19.4C93.6186 19.576 93.5546 19.72 93.4266 19.832C93.3146 19.944 93.1786 20 93.0186 20H90.3066C90.1306 20 89.9866 19.944 89.8746 19.832C89.7626 19.72 89.7066 19.576 89.7066 19.4V18.632C89.3226 19.096 88.8266 19.48 88.2186 19.784C87.6106 20.088 86.8586 20.24 85.9626 20.24ZM87.2586 17.024C87.8026 17.024 88.2266 16.912 88.5306 16.688C88.8506 16.448 89.0826 16.144 89.2266 15.776C89.3866 15.408 89.4746 15.008 89.4906 14.576C89.5066 14.256 89.5146 13.952 89.5146 13.664C89.5146 13.376 89.5066 13.08 89.4906 12.776C89.4746 12.376 89.3866 12.008 89.2266 11.672C89.0666 11.32 88.8266 11.04 88.5066 10.832C88.1866 10.608 87.7706 10.496 87.2586 10.496C86.7306 10.496 86.3066 10.608 85.9866 10.832C85.6826 11.056 85.4666 11.36 85.3386 11.744C85.2106 12.128 85.1306 12.552 85.0986 13.016C85.0506 13.512 85.0506 14.008 85.0986 14.504C85.1306 14.968 85.2106 15.392 85.3386 15.776C85.4666 16.16 85.6826 16.464 85.9866 16.688C86.3066 16.912 86.7306 17.024 87.2586 17.024Z" fill="#D2D5DA"/>
<path d="M102.421 20C102.245 20 102.101 19.944 101.989 19.832C101.877 19.72 101.821 19.576 101.821 19.4V3.8C101.821 3.624 101.877 3.48 101.989 3.368C102.101 3.256 102.245 3.2 102.421 3.2H108.949C111.013 3.2 112.637 3.68 113.821 4.64C115.021 5.584 115.621 6.928 115.621 8.672C115.621 9.808 115.341 10.768 114.781 11.552C114.237 12.336 113.517 12.928 112.621 13.328L115.933 19.232C115.981 19.328 116.005 19.416 116.005 19.496C116.005 19.624 115.949 19.744 115.837 19.856C115.741 19.952 115.621 20 115.477 20H112.309C112.005 20 111.781 19.928 111.637 19.784C111.493 19.624 111.389 19.48 111.325 19.352L108.589 14.072H106.117V19.4C106.117 19.576 106.061 19.72 105.949 19.832C105.837 19.944 105.693 20 105.517 20H102.421ZM106.117 10.688H108.901C109.653 10.688 110.213 10.504 110.581 10.136C110.965 9.768 111.157 9.264 111.157 8.624C111.157 8 110.973 7.496 110.605 7.112C110.253 6.728 109.685 6.536 108.901 6.536H106.117V10.688ZM121.894 20.24C121.03 20.24 120.254 20.08 119.566 19.76C118.894 19.424 118.358 18.976 117.958 18.416C117.558 17.856 117.358 17.224 117.358 16.52C117.358 15.384 117.822 14.488 118.75 13.832C119.678 13.16 120.91 12.704 122.446 12.464L125.446 12.008V11.672C125.446 11.096 125.326 10.656 125.086 10.352C124.846 10.048 124.406 9.896 123.766 9.896C123.318 9.896 122.95 9.984 122.662 10.16C122.39 10.336 122.174 10.576 122.014 10.88C121.87 11.088 121.67 11.192 121.414 11.192H118.726C118.55 11.192 118.414 11.144 118.318 11.048C118.222 10.936 118.182 10.808 118.198 10.664C118.198 10.376 118.302 10.048 118.51 9.68C118.734 9.296 119.07 8.92 119.518 8.552C119.966 8.184 120.542 7.88 121.246 7.64C121.95 7.4 122.798 7.28 123.79 7.28C124.83 7.28 125.718 7.4 126.454 7.64C127.19 7.88 127.782 8.216 128.23 8.648C128.694 9.08 129.038 9.592 129.262 10.184C129.486 10.76 129.598 11.4 129.598 12.104V19.4C129.598 19.576 129.534 19.72 129.406 19.832C129.294 19.944 129.158 20 128.998 20H126.214C126.038 20 125.894 19.944 125.782 19.832C125.67 19.72 125.614 19.576 125.614 19.4V18.56C125.406 18.864 125.126 19.144 124.774 19.4C124.422 19.656 124.006 19.856 123.526 20C123.062 20.16 122.518 20.24 121.894 20.24ZM123.022 17.504C123.486 17.504 123.902 17.408 124.27 17.216C124.654 17.008 124.95 16.696 125.158 16.28C125.382 15.848 125.494 15.312 125.494 14.672V14.336L123.454 14.696C122.702 14.824 122.15 15.024 121.798 15.296C121.462 15.552 121.294 15.856 121.294 16.208C121.294 16.48 121.374 16.712 121.534 16.904C121.694 17.096 121.902 17.248 122.158 17.36C122.414 17.456 122.702 17.504 123.022 17.504ZM132.907 20C132.731 20 132.587 19.944 132.475 19.832C132.363 19.72 132.307 19.576 132.307 19.4V8.12C132.307 7.944 132.363 7.8 132.475 7.688C132.587 7.576 132.731 7.52 132.907 7.52H135.667C135.843 7.52 135.987 7.576 136.099 7.688C136.211 7.8 136.267 7.944 136.267 8.12V9.032C136.683 8.536 137.227 8.12 137.899 7.784C138.571 7.448 139.363 7.28 140.275 7.28C141.203 7.28 142.019 7.488 142.723 7.904C143.443 8.32 144.003 8.936 144.403 9.752C144.819 10.552 145.027 11.536 145.027 12.704V19.4C145.027 19.576 144.963 19.72 144.835 19.832C144.723 19.944 144.587 20 144.427 20H141.403C141.243 20 141.099 19.944 140.971 19.832C140.859 19.72 140.803 19.576 140.803 19.4V12.848C140.803 12.096 140.619 11.52 140.251 11.12C139.899 10.704 139.371 10.496 138.667 10.496C138.011 10.496 137.483 10.704 137.083 11.12C136.699 11.52 136.507 12.096 136.507 12.848V19.4C136.507 19.576 136.443 19.72 136.315 19.832C136.203 19.944 136.067 20 135.907 20H132.907ZM148.305 20C148.129 20 147.985 19.944 147.873 19.832C147.761 19.72 147.705 19.576 147.705 19.4V3.56C147.705 3.384 147.761 3.24 147.873 3.128C147.985 3.016 148.129 2.96 148.305 2.96H151.089C151.249 2.96 151.385 3.016 151.497 3.128C151.625 3.24 151.689 3.384 151.689 3.56V11.6L155.025 7.928C155.121 7.816 155.225 7.72 155.337 7.64C155.449 7.56 155.609 7.52 155.817 7.52H159.033C159.177 7.52 159.297 7.576 159.393 7.688C159.505 7.784 159.561 7.904 159.561 8.048C159.561 8.112 159.545 8.184 159.513 8.264C159.481 8.344 159.433 8.408 159.369 8.456L155.049 13.112L159.969 19.088C160.097 19.216 160.161 19.344 160.161 19.472C160.161 19.616 160.105 19.744 159.993 19.856C159.897 19.952 159.769 20 159.609 20H156.321C156.081 20 155.905 19.96 155.793 19.88C155.681 19.784 155.577 19.688 155.481 19.592L151.689 15.032V19.4C151.689 19.576 151.625 19.72 151.497 19.832C151.385 19.944 151.249 20 151.089 20H148.305ZM166.599 20.24C165.559 20.24 164.671 20.128 163.935 19.904C163.215 19.664 162.623 19.376 162.159 19.04C161.711 18.704 161.375 18.36 161.151 18.008C160.927 17.64 160.807 17.328 160.791 17.072C160.775 16.896 160.831 16.752 160.959 16.64C161.087 16.512 161.223 16.448 161.367 16.448H164.103C164.151 16.448 164.191 16.456 164.223 16.472C164.255 16.488 164.303 16.52 164.367 16.568C164.575 16.68 164.783 16.824 164.991 17C165.199 17.16 165.439 17.304 165.711 17.432C165.983 17.56 166.311 17.624 166.695 17.624C167.143 17.624 167.519 17.536 167.823 17.36C168.127 17.184 168.279 16.92 168.279 16.568C168.279 16.312 168.207 16.104 168.063 15.944C167.919 15.768 167.623 15.6 167.175 15.44C166.743 15.28 166.087 15.12 165.207 14.96C164.375 14.768 163.647 14.52 163.023 14.216C162.399 13.896 161.919 13.488 161.583 12.992C161.247 12.48 161.079 11.864 161.079 11.144C161.079 10.504 161.287 9.888 161.703 9.296C162.119 8.704 162.727 8.224 163.527 7.856C164.327 7.472 165.311 7.28 166.479 7.28C167.407 7.28 168.207 7.392 168.879 7.616C169.567 7.824 170.143 8.096 170.607 8.432C171.087 8.768 171.447 9.112 171.687 9.464C171.927 9.816 172.055 10.136 172.071 10.424C172.087 10.584 172.039 10.728 171.927 10.856C171.815 10.968 171.687 11.024 171.543 11.024H169.047C168.983 11.024 168.919 11.016 168.855 11C168.791 10.968 168.735 10.936 168.687 10.904C168.495 10.808 168.303 10.68 168.111 10.52C167.919 10.36 167.695 10.216 167.439 10.088C167.183 9.96 166.863 9.896 166.479 9.896C166.047 9.896 165.711 9.992 165.471 10.184C165.231 10.376 165.111 10.624 165.111 10.928C165.111 11.136 165.175 11.328 165.303 11.504C165.447 11.68 165.727 11.84 166.143 11.984C166.575 12.128 167.239 12.288 168.135 12.464C169.239 12.64 170.119 12.928 170.775 13.328C171.431 13.712 171.895 14.168 172.167 14.696C172.439 15.208 172.575 15.752 172.575 16.328C172.575 17.096 172.343 17.776 171.879 18.368C171.431 18.96 170.759 19.424 169.863 19.76C168.967 20.08 167.879 20.24 166.599 20.24Z" fill="#4E80EE"/>
<rect y="15.7336" width="22" height="4.4" rx="2" fill="#4E80EE"/>
<rect y="9.86725" width="14.6667" height="4.4" rx="2" fill="#4E80EE"/>
<rect y="4" width="7.33333" height="4.4" rx="2" fill="#4E80EE"/>
</svg>
